<?xml version="1.0" encoding="UTF-8"?>
<svg id="Capa_1" xmlns="http://www.w3.org/2000/svg" xmlns:xlink="http://www.w3.org/1999/xlink" version="1.1" viewBox="0 0 25.6 25.6">
  <!-- Generator: Adobe Illustrator 29.2.1, SVG Export Plug-In . SVG Version: 2.1.0 Build 116)  -->
  <defs>
    <style>
      .st0 {
        fill: #ff683d;
      }
    </style>
  </defs>
  <path class="st0" d="M22.1,17.8c-1.5-1.3-3.1-2.1-4.6-.8l-.9.8c-.7.6-1.9,3.3-6.7-2.2-4.8-5.5-1.9-6.4-1.3-7l.9-.8c1.5-1.3.9-3-.1-4.7l-.7-1C7.5.4,6.3-.7,4.8.6l-.8.7c-.7.5-2.6,2.1-3,5.1-.6,3.6,1.2,7.8,5.2,12.4,4,4.6,7.9,6.9,11.5,6.8,3.1,0,4.9-1.7,5.5-2.3l.8-.7c1.5-1.3.6-2.7-1-4l-.9-.8Z"/>
</svg>