<?xml version="1.0" encoding="UTF-8"?>
<svg id="Calque_1" xmlns="http://www.w3.org/2000/svg" version="1.1" viewBox="0 0 32 32">
  <!-- Generator: Adobe Illustrator 29.2.1, SVG Export Plug-In . SVG Version: 2.1.0 Build 116)  -->
  <defs>
    <style>
      .st0 {
        fill: #fff;
      }
    </style>
  </defs>
  <g id="graduation_cap">
    <path class="st0" d="M29.3,21v-8.7h0c0-.8-.4-1.4-1.1-1.7l-11.8-5.5c-.8-.4-1.7-.4-2.5,0L2.2,10.6c-.7.3-1.1,1-1.1,1.7s.4,1.4,1.1,1.7l2.8,1.3v4.3c0,1.4.8,2.7,2,3.4l2.3,1.3c1.9,1.1,3.9,1.6,6,1.6s4.2-.5,6-1.6l2.3-1.3c1.2-.7,2-2,2-3.4v-4.3l2.1-1v6.6c-.9.2-1.6.9-1.6,1.9v2.3c0,1.1.9,1.9,1.9,1.9h1.1c1.1,0,1.9-.9,1.9-1.9v-2.3c0-.9-.7-1.7-1.6-1.9ZM23.6,19.7c0,.8-.4,1.5-1.1,1.8l-2.3,1.3c-3.1,1.8-7.1,1.8-10.2,0l-2.3-1.3c-.7-.4-1.1-1.1-1.1-1.9v-3.4l7.2,3.4c.4.2.8.3,1.2.3s.8,0,1.2-.3l7.2-3.4v3.4h0ZM27.5,12.5l-11.8,5.5c-.3.1-.6.1-.9,0L3,12.5s0,0,0-.1,0,0,0-.1l11.8-5.5c.2,0,.3-.1.5-.1s.3,0,.5.1l11.8,5.5s0,0,0,.1,0,0,0,.1ZM29.1,25.2c0,0,0,.1-.1.1h-1.1c0,0-.1,0-.1-.1v-2.3c0,0,0-.1.1-.1h1.1c0,0,.1,0,.1.1v2.3Z"/>
  </g>
</svg>