<?xml version="1.0" encoding="UTF-8"?>
<svg id="_Слой_1" data-name="Слой_1" xmlns="http://www.w3.org/2000/svg" version="1.1" viewBox="0 0 512 512">
  <!-- Generator: Adobe Illustrator 29.2.1, SVG Export Plug-In . SVG Version: 2.1.0 Build 116)  -->
  <defs>
    <style>
      .st0 {
        fill: #ff683d;
      }
    </style>
  </defs>
  <path class="st0" d="M256,512c141.2,0,256-114.8,256-256S397.2,0,256,0,0,114.8,0,256s114.8,256,256,256ZM247.8,41.6c11.8-.5,20.3,8.3,20.7,19.3l6.2,177,65.8-52.6c8.7-6.9,21.2-5.5,28.1,3.1,6.9,8.6,5.5,21.2-3.1,28.1l-97,77.4c-3.6,2.9-8,4.4-12.5,4.4s-5.7-.6-8.4-1.8c-6.9-3.2-11.4-9.9-11.6-17.5l-7.5-216.8c-.4-11,8.2-20.3,19.3-20.7h0Z"/>
</svg>