<?xml version="1.0" encoding="UTF-8"?>
<svg id="Layer_1" xmlns="http://www.w3.org/2000/svg" version="1.1" viewBox="0 0 512 512">
  <!-- Generator: Adobe Illustrator 29.2.1, SVG Export Plug-In . SVG Version: 2.1.0 Build 116)  -->
  <defs>
    <style>
      .st0 {
        fill: #fff;
      }
    </style>
  </defs>
  <path class="st0" d="M269.5,302.4h-58.2c-4.4,0-8,3.6-8,8v185.6c0,4.4,3.6,8,8,8h58.2c4.4,0,8-3.6,8-8v-185.6c0-4.4-3.6-8-8-8ZM261.5,488h-42.2v-169.6h42.2v169.6ZM377.5,326.6h-58.2c-4.4,0-8,3.6-8,8v161.4c0,4.4,3.6,8,8,8h58.2c4.4,0,8-3.6,8-8v-161.4c0-4.4-3.6-8-8-8ZM369.5,488h-42.2v-145.4h42.2v145.4ZM485.5,226.1h-58.2c-4.4,0-8,3.6-8,8v261.9c0,4.4,3.6,8,8,8h58.2c4.4,0,8-3.6,8-8V234.1c0-4.4-3.6-8-8-8ZM477.5,488h-42.2v-245.9h42.2v245.9ZM161.5,374.4h-58.2c-4.4,0-8,3.6-8,8v113.6c0,4.4,3.6,8,8,8h58.2c4.4,0,8-3.6,8-8v-113.6c0-4.4-3.6-8-8-8ZM153.5,488h-42.2v-97.6h42.2v97.6ZM346.2,263.9l85.6-86.3-9.1,2c-4.3.9-8.6-1.8-9.5-6.1s1.8-8.6,6.1-9.5l35.4-7.6c2.6-.6,5.3.2,7.2,2.1,1.9,1.8,2.8,4.5,2.3,7.2l-5.7,32.3c-.7,3.9-4.1,6.6-7.9,6.6s-.9,0-1.4-.1c-4.4-.8-7.3-4.9-6.5-9.3l1.3-7.1-90,90.8c-2.1,2.1-5.3,2.9-8.1,2l-103.9-33.7-104.6,81.5c-1.5,1.1-3.2,1.7-4.9,1.7s-4.7-1.1-6.3-3.1c-2.7-3.5-2.1-8.5,1.4-11.2l108-84.1c2.1-1.6,4.9-2.1,7.4-1.3l103.3,33.5ZM152.1,272.5c0-4.4-3.6-8-8-8H35.8c6.5-34.4,28.7-62.7,58.5-77.8l20.3,36.3c1.3,2.3,3.6,3.8,6.2,4,.3,0,.5,0,.8,0,2.3,0,4.6-1,6.1-2.8l16.4-19.5,16.4,19.5c1.5,1.8,3.8,2.8,6.1,2.8s.5,0,.8,0c2.6-.2,4.9-1.8,6.2-4l20.3-36.2c11.6,5.9,22.2,13.8,31.2,23.4,3,3.2,8.1,3.4,11.3.4,3.2-3,3.4-8.1.4-11.3-11.9-12.9-26.4-23-42.2-29.9,0,0,0,0-.1,0-.6-.3-1.2-.6-1.8-.7-4-1.7-8.1-3.1-12.3-4.4,18.9-12.1,31.5-33.2,31.5-57.2s-.2-5.3-.5-8c.7-1.2,1-2.5,1-3.9v-42.1l11.9-3.2v30.6l-6.2,3.6c-2.5,1.4-4,4.1-4,6.9v31c0,3,1.7,5.8,4.4,7.2,1.1.6,2.4.8,3.6.8s3.4-.5,4.8-1.6l5.3-4,5.3,4c2.4,1.8,5.7,2.1,8.4.8,2.7-1.4,4.4-4.1,4.4-7.2v-31c0-2.9-1.5-5.5-4-6.9l-6.2-3.6v-41h0c0-3.6-2.4-6.8-5.9-7.7l-88.3-23.5c-1.3-.4-2.8-.4-4.1,0L53.8,31.7c-3.5.9-5.9,4.1-5.9,7.7s2.4,6.8,5.9,7.7l22,5.8v42.1c0,1.4.4,2.8,1,3.9-.3,2.6-.5,5.3-.5,8,0,24,12.6,45.1,31.4,57.2-4.4,1.3-8.7,2.9-13,4.7-.2,0-.3.1-.5.2-12.7,5.4-24.4,13-34.8,22.4-23.1,20.9-37.6,49.3-40.9,80.2-.2,2.3.5,4.5,2,6.2s3.7,2.7,5.9,2.7h117.6c4.4,0,8-3.6,8-8h0ZM123,205.1l-13.8-24.6c1.6-.5,3.2-1,4.8-1.5l18.7,14.5-9.7,11.5ZM144.2,174.9s0,0,0,0c3,0,6,.1,9,.4l-9,7-9-7c3-.2,6-.4,9-.4s0,0,0,0ZM165.4,205.1l-9.7-11.5,18.7-14.4c1.6.5,3.2,1,4.8,1.5l-13.7,24.5ZM234.7,106.6c-.7-.2-1.4-.3-2.2-.3s-1.4,0-2.2.3v-11l2.2-1.2,2.2,1.2v11ZM144.2,24.3l57.2,15.2-57.2,15.2-57.2-15.2,57.2-15.2ZM142.1,70.7c.7.2,1.4.3,2.1.3s1.4,0,2.1-.3l50.3-13.4v31.2c-7.4,1.4-13.8,2.6-19.1,3.6q-33.3,6.4-66.5,0c-5.3-1-11.7-2.3-19.1-3.6v-31.2l50.3,13.4ZM92.4,107c0-.7,0-1.4,0-2.2,5.9,1.1,11.1,2.1,15.5,3,17.8,3.4,27.1,5.2,36.3,5.2s18.5-1.7,36.3-5.2c4.4-.9,9.6-1.9,15.5-3,0,.7,0,1.4,0,2.2,0,28.6-23.2,51.8-51.8,51.8h0c-28.6,0-51.8-23.3-51.8-51.8h0Z"/>
</svg>