<?xml version="1.0" encoding="UTF-8"?>
<svg id="Layer_1" xmlns="http://www.w3.org/2000/svg" version="1.1" viewBox="0 0 512 512">
  <!-- Generator: Adobe Illustrator 29.2.1, SVG Export Plug-In . SVG Version: 2.1.0 Build 116)  -->
  <defs>
    <style>
      .st0 {
        fill: #fff;
      }
    </style>
  </defs>
  <path class="st0" d="M407.6,349.6h40.6c5.6,0,10.2-4.6,10.2-10.2s-4.6-10.2-10.2-10.2h-40.6c-5.6,0-10.2,4.6-10.2,10.2s4.6,10.2,10.2,10.2Z"/>
  <path class="st0" d="M407.6,398.7h40.6c5.6,0,10.2-4.6,10.2-10.2s-4.6-10.2-10.2-10.2h-40.6c-5.6,0-10.2,4.6-10.2,10.2s4.6,10.2,10.2,10.2Z"/>
  <path class="st0" d="M407.6,447.9h40.6c5.6,0,10.2-4.6,10.2-10.2s-4.6-10.2-10.2-10.2h-40.6c-5.6,0-10.2,4.6-10.2,10.2s4.6,10.2,10.2,10.2Z"/>
  <path class="st0" d="M492.8,266.1h-119.7v-61.8c10.6,3.1,21.3,5.6,32.3,7.4.6.1,1.1.1,1.7.1,3.6,0,6.9-1.8,8.8-5l29.5-50.1,18.8,4.3-33,66.7c-2.6,5.1-.4,11.2,4.6,13.7,1.4.7,3,1,4.5,1,3.8,0,7.3-2,9.2-5.7l38.7-78.3c.1-.2.1-.5.2-.8.3-.8.6-1.6.7-2.6.1-.4.1-.8.1-1.3,0-.8-.1-1.6-.3-2.3-.1-.4-.2-.8-.3-1.1-.3-.9-.8-1.7-1.4-2.4-.2-.2-.2-.5-.4-.7,0,0,0-.1-.1-.1l-98.8-109.8c-1.4-1.5-3.3-2.7-5.3-3.2L238.6,1.2c-4.4-1-8.9.9-11.1,4.8-2.2,3.9-1.7,8.7,1.2,12l21.5,24-29.5,50.1c-2.1,3.7-1.8,8.3.8,11.5,12.3,15.3,26.1,29.3,40.9,41.7h-113.3c-5.6,0-10.2,4.6-10.2,10.2v110.6H19.2c-5.6,0-10.2,4.6-10.2,10.2v224.5c0,5.6,4.5,10.2,10.2,10.2h473.6c5.6,0,10.2-4.6,10.2-10.2v-224.6c0-5.6-4.6-10.2-10.2-10.2ZM138.9,490.7H29.4v-204.1h109.5v204.1ZM374.9,53.4l75.1,83.6-109.5-25.1-75.1-83.6,109.5,25.1ZM285,490.7h-57.9v-76.3h57.9v76.3ZM352.7,276.3v214.4h-47.3v-86.5c0-5.6-4.6-10.2-10.2-10.2h-78.4c-5.6,0-10.2,4.6-10.2,10.2v86.5h-47.3V165.7h130.5c19.7,13.1,40.7,23.8,62.9,31.9v78.7ZM242,96.2l22.5-38.4,62.9,70c1.4,1.5,3.3,2.7,5.3,3.2l91.8,21-22.5,38.4c-62.5-12.4-119-45.6-160.1-94.2ZM482.6,490.7h-109.5v-204.1h109.5v204.1Z"/>
  <path class="st0" d="M63.8,349.6h40.6c5.6,0,10.2-4.6,10.2-10.2s-4.6-10.2-10.2-10.2h-40.6c-5.6,0-10.2,4.6-10.2,10.2s4.6,10.2,10.2,10.2Z"/>
  <path class="st0" d="M63.8,398.7h40.6c5.6,0,10.2-4.6,10.2-10.2s-4.6-10.2-10.2-10.2h-40.6c-5.6,0-10.2,4.6-10.2,10.2s4.6,10.2,10.2,10.2Z"/>
  <path class="st0" d="M63.8,447.9h40.6c5.6,0,10.2-4.6,10.2-10.2s-4.6-10.2-10.2-10.2h-40.6c-5.6,0-10.2,4.6-10.2,10.2s4.6,10.2,10.2,10.2Z"/>
  <path class="st0" d="M193.4,223.2c0,5.6,4.6,10.2,10.2,10.2h104.9c5.6,0,10.2-4.6,10.2-10.2s-4.6-10.2-10.2-10.2h-104.9c-5.6,0-10.2,4.6-10.2,10.2Z"/>
  <path class="st0" d="M308.4,269.7h-104.9c-5.6,0-10.2,4.6-10.2,10.2s4.6,10.2,10.2,10.2h104.9c5.6,0,10.2-4.6,10.2-10.2s-4.6-10.2-10.2-10.2Z"/>
  <path class="st0" d="M308.4,326.2h-104.9c-5.6,0-10.2,4.6-10.2,10.2s4.6,10.2,10.2,10.2h104.9c5.6,0,10.2-4.6,10.2-10.2s-4.6-10.2-10.2-10.2Z"/>
</svg>