<?xml version="1.0" encoding="UTF-8"?>
<svg id="Capa_1" xmlns="http://www.w3.org/2000/svg" version="1.1" viewBox="0 0 512 512">
  <!-- Generator: Adobe Illustrator 29.2.1, SVG Export Plug-In . SVG Version: 2.1.0 Build 116)  -->
  <defs>
    <style>
      .st0 {
        fill: #ff683d;
      }
    </style>
  </defs>
  <path class="st0" d="M15,421h75v45c0,8.3,6.7,15,15,15h392c8.3,0,15-6.7,15-15V76c0-8.3-6.7-15-15-15h-75v-15c0-8.3-6.7-15-15-15s-15,6.7-15,15v15h-76v-15c0-8.3-6.7-15-15-15s-15,6.7-15,15v15h-75v-15c0-8.3-6.7-15-15-15s-15,6.7-15,15v15h-76c-8.3,0-15,6.7-15,15v90c0,110.5-45.9,195.6-84.6,228.5-4.9,4-6.7,10.7-4.5,16.6,2.2,5.9,7.8,9.9,14.1,9.9h0ZM482,451H120v-30h287c3.5,0,6.9-1.2,9.6-3.5,18-15,46-50.8,65.4-96.6v130.1ZM120,91h61v15c0,8.3,6.7,15,15,15s15-6.7,15-15v-15h75v15c0,8.3,6.7,15,15,15s15-6.7,15-15v-15h76v15c0,8.3,6.7,15,15,15s15-6.7,15-15v-15h60v60H120v-60ZM119.7,181h362c-3.4,95.2-39.9,170-80.6,210H49.1c46.1-58.8,68.1-135.3,70.6-210h0Z"/>
</svg>