<?xml version="1.0" encoding="UTF-8"?>
<svg id="Capa_1" xmlns="http://www.w3.org/2000/svg" version="1.1" viewBox="0 0 512 512">
  <!-- Generator: Adobe Illustrator 29.2.1, SVG Export Plug-In . SVG Version: 2.1.0 Build 116)  -->
  <defs>
    <style>
      .st0 {
        fill: #ff683d;
      }
    </style>
  </defs>
  <path class="st0" d="M471,330c0-24.1-17.2-44.3-40-49v-54c0-4.9-2.4-9.5-6.5-12.3s-9.2-3.4-13.8-1.7l-28.6,10.7c-18.8-19.5-41.7-34.3-66.7-43.3,24.6-18.2,40.6-47.5,40.6-80.4C356,44.9,311.1,0,256,0s-100,44.9-100,100,16,62.2,40.6,80.4c-25,9-47.9,23.8-66.7,43.3l-28.6-10.7c-4.6-1.7-9.8-1.1-13.8,1.7-4,2.8-6.5,7.4-6.5,12.3v54c-22.8,4.6-40,24.8-40,49s17.2,44.3,40,49v58c0,6.3,3.9,11.9,9.7,14l160,60c3.4,1.3,7.2,1.3,10.5,0l160-60c5.9-2.2,9.7-7.8,9.7-14v-58c22.8-4.6,40-24.8,40-49ZM186,100c0-38.6,31.4-70,70-70s70,31.4,70,70-31.4,70-70,70-70-31.4-70-70ZM256,200c35.1,0,68.7,12.7,94.9,35.4l-94.9,35.6-94.9-35.6c26.2-22.7,59.8-35.4,94.9-35.4h0ZM71,330c0-11,9-20,20-20h10v40h-10c-11,0-20-9-20-20ZM111,379.5c11.4-2.3,20-12.4,20-24.5v-50c0-12.1-8.6-22.2-20-24.5v-31.9l130,48.8v178l-130-48.8v-47.1ZM271,475.4v-178l130-48.8v31.9c-11.4,2.3-20,12.4-20,24.5v50c0,12.1,8.6,22.2,20,24.5v47.1l-130,48.8ZM421,350h-10v-40h10c11,0,20,9,20,20s-9,20-20,20Z"/>
</svg>