<?xml version="1.0" encoding="UTF-8"?>
<svg id="Calque_1" xmlns="http://www.w3.org/2000/svg" xmlns:xlink="http://www.w3.org/1999/xlink" version="1.1" viewBox="0 0 1005.4 378">
  <!-- Generator: Adobe Illustrator 29.2.1, SVG Export Plug-In . SVG Version: 2.1.0 Build 116)  -->
  <defs>
    <style>
      .st0 {
        fill: #fff;
      }
    </style>
  </defs>
  <g>
    <path class="st0" d="M320.9,194.2c0-33.2,23.6-58,55.7-58s53.4,19.1,52.8,60.1h-90.4c1.1,21.9,16.2,38.1,39.1,38.1s29.4-8,37.6-21.4l13.5,9.9c-9.7,15.1-26.5,28.6-51.3,28.6-34-.1-57-24.8-57-57.3h0ZM410.5,181.7c-3.6-19.8-17.5-29.2-34.1-29.2s-32.4,12.4-36.4,29.2h70.5Z"/>
    <path class="st0" d="M485.2,138.2h12.4v17.7h-10.7c-11.8,0-16.6,4.4-16.6,17v76.3h-19.4v-76.1c0-23.9,11.3-34.9,34.3-34.9h0Z"/>
    <path class="st0" d="M515,87.1h19.3v31.1h-19.3v-31.1ZM515,138.2h19.3v111h-19.3v-111h0Z"/>
    <path class="st0" d="M556.4,194c0-33.6,23.8-57,57-57s11.3.4,17.9,1.5v17.9c-6.5-1.1-12-1.5-15.8-1.5-24.2,0-39.7,16.2-39.7,39.1s15.6,38.7,39.7,38.7,9.3-.4,15.8-1.3v17.9c-6.5,1.1-12.6,1.5-17.9,1.5-33.2,0-57-23.4-57-56.8h0Z"/>
    <path class="st0" d="M672.7,197.1v52.1h-19.3V87.1h19.3v97.4l40-46.3h22.9l-44.4,51.8,47.5,59.3h-24l-42-52.2h0Z"/>
    <path class="st0" d="M740.2,193.7c0-33.9,24.6-57.6,55.1-57.6s31.5,7.1,39.3,18.9l.2-16.8h17.5v111h-17.5l-.2-16.8c-7.8,11.8-22.7,18.9-39.3,18.9-30.5.1-55.1-23.7-55.1-57.6h0ZM797.4,233.3c20.4,0,37-14.1,37-39.5s-16.6-39.7-37-39.7-37.8,16.4-37.8,39.7,16.2,39.5,37.8,39.5Z"/>
    <path class="st0" d="M913.1,243.4l-45.4-105.1h21.7l33.9,82,31.3-82h20.4l-60.6,152.7h-20.4l19.1-47.6h0Z"/>
  </g>
  <path class="st0" d="M270.5,136.1c-5.8-16.7-15.5-32.4-28-45.3-12.1-12.5-26.9-22.4-42.8-28.8v-8c0-25.5-20.8-46.2-46.3-46.2s-46.3,20.7-46.3,46.2v8.5c-15.7,6.5-30.2,16.4-42.1,28.8-12.3,12.8-21.9,28.3-27.6,44.8-4.5,13-6.8,26.7-6.8,40.6v.7c.1,13.7,2.4,27.1,6.8,39.8,5.8,16.8,15.6,32.5,28.2,45.4,12.4,12.7,27.5,22.7,43.8,29.1l22.1,43.5h0l15.5,30.8c1.3,2.6,4,4.2,6.9,4.2h0c3,0,5.6-1.7,6.9-4.3l15.3-30.9,21.3-43c16.5-6.2,31.9-16.3,44.4-29.1,12.8-13,22.7-28.9,28.6-45.8.8-2.4.4-5-1-7-1.5-2-3.8-3.3-6.3-3.3h-71.2c-4.3,0-7.7,3.5-7.7,7.7v66.5l-19.8,42.8h-21.4l-20.5-42.8v-96.2h147c4.1,0,7.5-3.2,7.7-7.3v-1c0-13.8-2.2-27.4-6.7-40.4h0ZM114.8,146.4h77.1c4.3,0,7.7-3.5,7.7-7.7v-59.8c12.4,5.8,23.8,14.1,33.2,24.1,10.3,11,18.3,24.2,23.1,38.1,3.2,9.1,5.1,18.6,5.7,28.3H114.8c-4.3,0-7.7,3.5-7.7,7.7v96.7c-12-5.9-23.2-14.1-32.4-24.1-10.1-10.9-17.9-23.9-22.7-37.7-3.9-11.2-5.9-23-6-35v-.4h0c0-12.3,2-24.2,6-35.6,4.8-13.8,12.7-26.8,22.7-37.7,9.2-9.9,20.3-18.2,32.4-24.1v59.2c0,4.5,3.5,7.9,7.7,8h0ZM122.6,130.9V54c0-16.9,13.8-30.7,30.8-30.7s30.8,13.7,30.8,30.7v76.9h-61.6ZM251.7,222.4c-5.3,11.3-12.5,21.6-21.5,30.5s-19.2,16.2-30.5,21.5v-52h52Z"/>
</svg>