<?xml version="1.0" encoding="utf-8"?>
<!-- Generator: Adobe Illustrator 27.5.0, SVG Export Plug-In . SVG Version: 6.00 Build 0)  -->
<svg version="1.1" id="Calque_1" xmlns="http://www.w3.org/2000/svg" xmlns:xlink="http://www.w3.org/1999/xlink" x="0px" y="0px"
	 viewBox="0 0 1005.4 378" style="enable-background:new 0 0 1005.4 378;" xml:space="preserve">
<g>
	<path d="M320.9,194.2c0-33.2,23.6-58,55.7-58c28.2,0,53.4,19.1,52.8,60.1H339c1.1,21.9,16.2,38.1,39.1,38.1
		c16.2,0,29.4-8,37.6-21.4l13.5,9.9c-9.7,15.1-26.5,28.6-51.3,28.6C343.9,251.4,320.9,226.7,320.9,194.2L320.9,194.2z M410.5,181.7
		c-3.6-19.8-17.5-29.2-34.1-29.2c-18.7,0-32.4,12.4-36.4,29.2H410.5z"/>
	<path d="M485.2,138.2h12.4v17.7h-10.7c-11.8,0-16.6,4.4-16.6,17v76.3h-19.4v-76.1C450.9,149.2,462.2,138.2,485.2,138.2L485.2,138.2
		z"/>
	<path d="M515,87.1h19.3v31.1H515V87.1z M515,138.2h19.3v111H515V138.2L515,138.2z"/>
	<path d="M556.4,194c0-33.6,23.8-57,57-57c5.3,0,11.3,0.4,17.9,1.5v17.9c-6.5-1.1-12-1.5-15.8-1.5c-24.2,0-39.7,16.2-39.7,39.1
		s15.6,38.7,39.7,38.7c3.8,0,9.3-0.4,15.8-1.3v17.9c-6.5,1.1-12.6,1.5-17.9,1.5C580.2,250.7,556.4,227.4,556.4,194L556.4,194z"/>
	<path d="M672.7,197.1v52.1h-19.3V87.1h19.3v97.4l40-46.3h22.9L691.2,190l47.5,59.3h-24L672.7,197.1L672.7,197.1z"/>
	<path d="M740.2,193.7c0-33.9,24.6-57.6,55.1-57.6c16.6,0,31.5,7.1,39.3,18.9l0.2-16.8h17.5v111h-17.5l-0.2-16.8
		c-7.8,11.8-22.7,18.9-39.3,18.9C764.8,251.4,740.2,227.6,740.2,193.7L740.2,193.7z M797.4,233.3c20.4,0,37-14.1,37-39.5
		s-16.6-39.7-37-39.7c-21.7,0-37.8,16.4-37.8,39.7S775.8,233.3,797.4,233.3z"/>
	<path d="M913.1,243.4l-45.4-105.1h21.7l33.9,82l31.3-82h20.4l-60.6,152.7h-20.4L913.1,243.4L913.1,243.4z"/>
</g>
<path d="M270.5,136.1c-5.8-16.7-15.5-32.4-28-45.3c-12.1-12.5-26.9-22.4-42.8-28.8v-8c0-25.5-20.8-46.2-46.3-46.2
	S107.1,28.5,107.1,54v8.5c-15.7,6.5-30.2,16.4-42.1,28.8c-12.3,12.8-21.9,28.3-27.6,44.8c-4.5,13-6.8,26.7-6.8,40.6
	c0,0.2,0,0.5,0,0.7c0.1,13.7,2.4,27.1,6.8,39.8c5.8,16.8,15.6,32.5,28.2,45.4c12.4,12.7,27.5,22.7,43.8,29.1l22.1,43.5l0,0v0l0,0
	L147,366c1.3,2.6,4,4.2,6.9,4.2h0c3,0,5.6-1.7,6.9-4.3l15.3-30.9l21.3-43c16.5-6.2,31.9-16.3,44.4-29.1c12.8-13,22.7-28.9,28.6-45.8
	c0.8-2.4,0.4-5-1-7c-1.5-2-3.8-3.3-6.3-3.3h-71.2c-4.3,0-7.7,3.5-7.7,7.7v66.5l-19.8,42.8H143l-20.5-42.8v-96.2h147
	c4.1,0,7.5-3.2,7.7-7.3c0-0.4,0-0.7,0-1C277.3,162.7,275,149.1,270.5,136.1L270.5,136.1z M114.8,146.4h77.1c4.3,0,7.7-3.5,7.7-7.7
	V78.9C212,84.7,223.4,93,232.8,103c10.3,11,18.3,24.2,23.1,38.1c3.2,9.1,5.1,18.6,5.7,28.3H114.8c-4.3,0-7.7,3.5-7.7,7.7v96.7
	c-12-5.9-23.2-14.1-32.4-24.1c-10.1-10.9-17.9-23.9-22.7-37.7c-3.9-11.2-5.9-23-6-35c0-0.1,0-0.2,0-0.4v-0.1c0-12.2,2-24.1,6-35.5
	c4.8-13.8,12.7-26.8,22.7-37.7c9.2-9.9,20.3-18.2,32.4-24.1v59.2C107.1,142.9,110.6,146.3,114.8,146.4L114.8,146.4z M122.6,130.9V54
	c0-16.9,13.8-30.7,30.8-30.7S184.2,37,184.2,54v76.9H122.6L122.6,130.9z M251.7,222.4c-5.3,11.3-12.5,21.6-21.5,30.5
	s-19.2,16.2-30.5,21.5v-52H251.7z"/>
</svg>
