<?xml version="1.0" encoding="UTF-8"?>
<svg id="home" xmlns="http://www.w3.org/2000/svg" version="1.1" viewBox="0 0 24 24">
  <!-- Generator: Adobe Illustrator 29.2.1, SVG Export Plug-In . SVG Version: 2.1.0 Build 116)  -->
  <defs>
    <style>
      .st0 {
        fill: #ff683d;
      }
    </style>
  </defs>
  <path class="st0" d="M21.2,7.2l-7-4.9c-1.3-.9-3-.9-4.3,0L2.8,7.2c-1,.7-1.6,1.8-1.6,3.1v8.4c0,2.1,1.7,3.8,3.8,3.8h14c2.1,0,3.8-1.7,3.8-3.8v-8.4c0-1.2-.6-2.4-1.6-3.1ZM8.8,20.9v-4.2c0-1.8,1.5-3.2,3.2-3.2s3.2,1.5,3.2,3.2v4.2h-6.5ZM21.2,18.7c0,1.2-1,2.2-2.2,2.2h-2.2v-4.2c0-2.6-2.1-4.8-4.8-4.8s-4.8,2.1-4.8,4.8v4.2h-2.2c-1.2,0-2.2-1-2.2-2.2v-8.4c0-.7.4-1.4,1-1.8l7-4.9c.4-.3.8-.4,1.3-.4h0c.5,0,.9.1,1.3.4l7,4.9c.6.4,1,1.1,1,1.8v8.4Z"/>
</svg>